<svg id="Layer_1" data-name="Layer 1" xmlns="http://www.w3.org/2000/svg" xmlns:xlink="http://www.w3.org/1999/xlink" viewBox="0 0 1500 924.48"><defs><style>.cls-1{fill:url(#linear-gradient);}.cls-2{fill:url(#linear-gradient-2);}.cls-3{fill:#fff;}</style><linearGradient id="linear-gradient" x1="7.13" y1="479.88" x2="1337.82" y2="479.88" gradientUnits="userSpaceOnUse"><stop offset="0.01" stop-color="#0b539e"/><stop offset="1" stop-color="#1c9db2"/></linearGradient><linearGradient id="linear-gradient-2" x1="416.17" y1="435.34" x2="1492.87" y2="435.34" gradientUnits="userSpaceOnUse"><stop offset="0.01" stop-color="#346eb5"/><stop offset="1" stop-color="#81cbd4"/></linearGradient></defs><path class="cls-1" d="M930.2,62.57,7.19,188.85l-.06,0,59,431.42c73,324.62,348.61,276.93,348.61,276.93l923-126.28,0,0-59-431.41C1205.77,14.88,930.2,62.57,930.2,62.57Z"/><path class="cls-2" d="M1163.05,97.69,416.22,199.87l-.05,0,47.76,349.07C523,811.58,746,773,746,773l746.83-102.17,0,0-47.76-349.07C1386,59.11,1163.05,97.69,1163.05,97.69Z"/><path class="cls-3" d="M1411.1,363.63a350.38,350.38,0,0,0-45.72-135.09A359.92,359.92,0,0,0,1270.94,122,362.15,362.15,0,0,0,941,63.71,392.71,392.71,0,0,0,820.6,128.57a338.43,338.43,0,0,0-88.45,105.09l-1.12.16a217.25,217.25,0,0,0-15,31.87,332.51,332.51,0,0,0-26,88.94c-1.19,8.1-2.09,16.18-2.77,24.25l144.42-20.1c1.82-7.33,3.9-14.64,6.49-21.91a226.54,226.54,0,0,1,66.6-97.46,220.32,220.32,0,0,1,81-43.35,215.64,215.64,0,0,1,90.66-6.89A208.34,208.34,0,0,1,1163,218.35a240.4,240.4,0,0,1,68.13,61.53q22.34,29,34.88,69.59a227.39,227.39,0,0,1-15.18,162.46,232.48,232.48,0,0,1-44.33,60,223.54,223.54,0,0,1-61.6,42.94,213,213,0,0,1-74.91,21.31,210,210,0,0,1-77.71-6.94A244.87,244.87,0,0,1,923.6,597a226.8,226.8,0,0,1-31.4-25.67l.82,5.86c.14.18.27.36.41.53-.14-.16-.26-.33-.4-.49l24.14,173.43a377.66,377.66,0,0,0,63.65,18.77,357.4,357.4,0,0,0,94.8,6.27q91.77-7.07,170.65-57.54t123.61-132.32A375.83,375.83,0,0,0,1408.12,478,348.1,348.1,0,0,0,1411.1,363.63Z"/><path class="cls-3" d="M867.43,821.23,811.87,422.14,684.43,439.88l-36.07,5h0L435.87,474.47l15.74,113,122.55-17.06L592,567.94l19.46-2.7L627.8,563l12.69-1.76c.71-2.12,1.31-4.27,2-6.41l.13.44a232.77,232.77,0,0,1-31.91,65.46A237.7,237.7,0,0,1,448,719.89c-129.46,18-248.76-70.53-266.48-197.79l0-.27a229.53,229.53,0,0,1-1.76-44.61c6.24-109,90.07-202.29,204.11-218.17a241,241,0,0,1,53.62-1.41c56.88,2.79,107.69,25.24,154.73,73.19L669.35,226.7C590.61,156.48,484.87,118,367.57,134.29c-202.94,28.25-345.29,209.54-318,405.63C77.59,741.14,264.43,873.11,466.51,845,561,831.83,654.68,781.76,719.37,690.81L740,839.09h0l4,28.59,127.43-17.87-4-28.58Z"/></svg>